PathFileType	4	(X/Y/Z)	/Users/itak/Documents/Research/Walk-IL/dataset/trc/00271_00010.trc
DataRate	CameraRate	NumFrames	NumMarkers	Units	OrigDataRate	OrigDataStartFrame	OrigNumFrames
100.000000	100.000000	4	54	mm	100.000000	70	565
Frame#	Time	LPSI			L3			STRN			T10			C7			CLAV			RBAK			LBAK			LSHO			LUPA			LAEL			LAOL			LWTS			LWPS			LFRA			LHPS			LHTS			RSHO			RUPA			RAEL			RAOL			RWTS			RWPS			RFRA			RIFD			RHTS			RHPS			RBHD			LFHD			RFHD			LBHD			LHIP			RHIP			RASI			LKNE			LANK			LTIP			LTOE			LMT1			LMT5			LHEE			RKNE			RTHI			RANK			RTIP			RTOE			RMT1			RMT5			RHEE			LIFD			RPSI			LTHI			LASI			*53			
		X1	Y1	Z1	X2	Y2	Z2	X3	Y3	Z3	X4	Y4	Z4	X5	Y5	Z5	X6	Y6	Z6	X7	Y7	Z7	X8	Y8	Z8	X9	Y9	Z9	X10	Y10	Z10	X11	Y11	Z11	X12	Y12	Z12	X13	Y13	Z13	X14	Y14	Z14	X15	Y15	Z15	X16	Y16	Z16	X17	Y17	Z17	X18	Y18	Z18	X19	Y19	Z19	X20	Y20	Z20	X21	Y21	Z21	X22	Y22	Z22	X23	Y23	Z23	X24	Y24	Z24	X25	Y25	Z25	X26	Y26	Z26	X27	Y27	Z27	X28	Y28	Z28	X29	Y29	Z29	X30	Y30	Z30	X31	Y31	Z31	X32	Y32	Z32	X33	Y33	Z33	X34	Y34	Z34	X35	Y35	Z35	X36	Y36	Z36	X37	Y37	Z37	X38	Y38	Z38	X39	Y39	Z39	X40	Y40	Z40	X41	Y41	Z41	X42	Y42	Z42	X43	Y43	Z43	X44	Y44	Z44	X45	Y45	Z45	X46	Y46	Z46	X47	Y47	Z47	X48	Y48	Z48	X49	Y49	Z49	X50	Y50	Z50	X51	Y51	Z51	X52	Y52	Z52	X53	Y53	Z53	X54	Y54	Z54	

71	0.7000000000000001	832.5012817382812	989.2257690429688	-103.2616424560547	847.0333862304688	1064.212280273438	-18.90979766845703	1091.887329101562	1249.485473632812	-17.1358470916748	827.5839233398438	1176.937866210938	-22.79474830627441	863.4354248046875	1422.014526367188	-41.31065368652344	1026.848022460938	1349.531372070312	-24.43131065368652	814.079345703125	1285.10986328125	36.66733551025391	856.0401611328125	1385.27685546875	-146.1438598632812	949.3275146484375	1395.975952148438	-191.0066375732422	934.1218872070312	1277.515747070312	-268.373291015625	951.968505859375	1074.39013671875	-283.5123901367188	881.5745849609375	1058.814575195312	-234.2710876464844	1031.7890625	855.5685424804688	-223.6575622558594	1007.279846191406	843.2611694335938	-290.4021911621094	971.3364868164062	971.2412719726562	-289.4772338867188	1013.898559570312	755.5982666015625	-287.7443237304688	1060.446411132812	757.3862915039062	-241.3607635498047	925.625	1406.399169921875	122.1176452636719	918.9715576171875	1349.13330078125	189.8467712402344	919.3660278320312	1085.088623046875	246.3765411376953	884.9231567382812	1073.374633789062	157.2423400878906	1033.673217773438	868.41796875	195.9226226806641	992.8702392578125	861.4107055664062	269.819091796875	948.417724609375	1018.861206054688	259.6587524414062	1055.068115234375	683.4502563476562	198.3985137939453	1071.375610351562	755.21337890625	212.6847839355469	1023.953063964844	751.0890502929688	264.173095703125	883.1007080078125	1586.82275390625	35.72903060913086	1059.245483398438	1627.1591796875	-74.72197723388672	1054.615600585938	1623.002319335938	18.09138298034668	891.5107421875	1583.223999023438	-110.1874542236328	904.1538696289062	943.3964233398438	-197.2286376953125	925.3824462890625	948.0760498046875	177.2067718505859	1046.09326171875	956.588623046875	109.2011184692383	985.8153686523438	479.7586975097656	-177.4066314697266	871.694091796875	40.48271179199219	-168.1509552001953	923.5133056640625	256.4036254882812	-183.4613189697266	1077.597290039062	29.26379203796387	-101.0313873291016	1004.579650878906	22.65763282775879	-63.87986373901367	995.7981567382812	33.00806427001953	-175.6884765625	824.8560180664062	35.62662124633789	-110.2650451660156	968.9094848632812	474.0552368164062	127.1268539428711	992.0648803710938	736.4234008789062	171.6266021728516	882.5145874023438	34.99637603759766	83.23236083984375	970.561767578125	349.4126892089844	108.4580154418945	1079.669189453125	34.93331527709961	31.65277862548828	1022.795837402344	33.65285110473633	-7.842486381530762	986.60205078125	24.89151000976562	104.4895477294922	830.3837890625	35.39797973632812	31.26233100891113	1040.577270507812	668.613525390625	-222.7259826660156	826.5296020507812	995.3283081054688	70.98014831542969	972.1257934570312	621.3133544921875	-195.7617034912109	1041.097900390625	954.6341552734375	-142.4954223632812	nan	nan	nan	
72	0.71	831.860107421875	989.0911254882812	-102.6500015258789	846.40478515625	1064.148559570312	-18.28107070922852	1091.243530273438	1249.426513671875	-16.38273811340332	827.0107421875	1176.947509765625	-22.24431800842285	862.8704833984375	1422.011596679688	-40.77057647705078	1026.2177734375	1349.467407226562	-23.74920654296875	813.4039306640625	1285.074340820312	37.13361740112305	855.5941162109375	1385.270141601562	-145.6851501464844	948.8951416015625	1395.94384765625	-190.3981170654297	933.7138061523438	1277.52294921875	-267.7871398925781	951.4617309570312	1074.403686523438	-282.967041015625	881.0914306640625	1058.833862304688	-233.6941375732422	1031.437866210938	855.6168212890625	-223.1516265869141	1006.918518066406	843.3345947265625	-289.8977661132812	970.825439453125	971.2832641601562	-288.9528198242188	1013.602905273438	755.6189575195312	-287.2127685546875	1060.235717773438	757.5596313476562	-240.9993133544922	924.8728637695312	1406.358276367188	122.690055847168	918.1415405273438	1349.073852539062	190.404541015625	918.4110107421875	1085.002807617188	246.8444213867188	884.1605224609375	1073.320922851562	157.7301025390625	1032.734252929688	868.3302001953125	196.4115142822266	991.872802734375	861.293212890625	270.27099609375	947.4247436523438	1018.751892089844	260.1091918945312	1054.066528320312	683.3448486328125	198.8139190673828	1070.425048828125	755.1127319335938	213.17236328125	1022.9921875	750.9849243164062	264.6265563964844	882.4793701171875	1586.867919921875	36.16922378540039	1058.676635742188	1627.07861328125	-74.25489807128906	1054.030639648438	1623.00244140625	18.55463218688965	890.9373779296875	1583.139404296875	-109.7301025390625	903.9575805664062	943.294189453125	-196.4920654296875	924.5546875	947.9564819335938	177.8898620605469	1045.333618164062	956.6021118164062	109.9407501220703	986.3745727539062	479.8363342285156	-177.081298828125	871.8048706054688	40.65989303588867	-168.1514282226562	923.9664916992188	256.4999084472656	-183.3460540771484	1077.638671875	29.23086929321289	-101.0495910644531	1004.595947265625	22.66472053527832	-63.88204193115234	995.8309936523438	33.00431442260742	-175.6771850585938	824.8631591796875	35.80204010009766	-110.2967071533203	968.646728515625	474.0030517578125	127.52099609375	991.97705078125	735.9843139648438	171.87744140625	882.5235595703125	34.95681762695312	83.27162170410156	970.3765869140625	349.4534912109375	108.8655700683594	1079.6650390625	34.932373046875	31.66246032714844	1022.798034667969	33.66305923461914	-7.828267574310303	986.5927124023438	24.87030601501465	104.5099487304688	830.3522338867188	35.40816497802734	31.27181816101074	1040.483276367188	668.7735595703125	-222.3327026367188	825.7294311523438	995.205322265625	71.56851196289062	972.6233520507812	621.3909912109375	-195.1649932861328	1040.485229492188	954.6559448242188	-141.7332153320312	nan	nan	nan	
73	0.72	831.1986694335938	988.9295043945312	-101.9906311035156	845.7451171875	1064.099487304688	-17.61933517456055	1090.5791015625	1249.356079101562	-15.60346126556396	826.42333984375	1176.965942382812	-21.65949630737305	862.292724609375	1422.004028320312	-40.19737243652344	1025.567626953125	1349.39111328125	-23.03487205505371	812.7042846679688	1285.037231445312	37.64449691772461	855.0653686523438	1385.247802734375	-145.1252593994141	948.43408203125	1395.905395507812	-189.7541198730469	933.2633666992188	1277.522827148438	-267.16455078125	950.9155883789062	1074.41650390625	-282.3939819335938	880.5664672851562	1058.846557617188	-233.0784759521484	1031.0703125	855.6973876953125	-222.649169921875	1006.532531738281	843.413330078125	-289.3642578125	970.2693481445312	971.3196411132812	-288.405029296875	1013.288513183594	755.6500244140625	-286.6520690917969	1060.0478515625	757.7785034179688	-240.6393432617188	924.0985107421875	1406.31640625	123.2904739379883	917.3024291992188	1349.015014648438	190.9983825683594	917.4505615234375	1084.920288085938	247.3491363525391	883.3735961914062	1073.2724609375	158.238037109375	1031.767456054688	868.2340698242188	196.9357452392578	990.84912109375	861.1737670898438	270.7605590820312	946.432861328125	1018.644226074219	260.5995788574219	1053.01123046875	683.2258911132812	199.2685699462891	1069.438598632812	755.0006103515625	213.6988220214844	1021.991943359375	750.8746948242188	265.1201477050781	881.8511352539062	1586.912841796875	36.63827133178711	1058.096069335938	1626.988159179688	-73.74946594238281	1053.43359375	1622.98779296875	19.05240631103516	890.3471069335938	1583.056762695312	-109.2445907592773	903.69140625	943.180419921875	-195.7257690429688	923.7202758789062	947.8323364257812	178.6125946044922	1044.536254882812	956.6104125976562	110.6990280151367	986.997314453125	479.9080810546875	-176.7333221435547	871.9193725585938	40.84101486206055	-168.1458740234375	924.4705810546875	256.5940551757812	-183.2320861816406	1077.677612304688	29.19669723510742	-101.0655212402344	1004.607604980469	22.67784118652344	-63.88736343383789	995.8644409179688	32.9998893737793	-175.6638336181641	824.8720703125	36.0133056640625	-110.3318252563477	968.3441162109375	473.9403076171875	127.9255676269531	991.8425903320312	735.5521240234375	172.1607513427734	882.537109375	34.90510559082031	83.31270599365234	970.1972045898438	349.4759216308594	109.3023147583008	1079.6611328125	34.93299102783203	31.6735954284668	1022.798034667969	33.67343902587891	-7.812150001525879	986.5718383789062	24.85676956176758	104.5298461914062	830.3133544921875	35.41788482666016	31.2807559967041	1040.348266601562	668.8927612304688	-221.8433837890625	824.9093017578125	995.078857421875	72.20073699951172	973.2327270507812	621.467529296875	-194.5185852050781	1039.801513671875	954.6776733398438	-140.9627532958984	nan	nan	nan	
74	0.73	830.51904296875	988.7384033203125	-101.2848052978516	845.0315551757812	1064.063720703125	-16.9309024810791	1089.890380859375	1249.274047851562	-14.80169010162354	825.8087158203125	1176.9892578125	-21.0408992767334	861.69921875	1421.9912109375	-39.59249877929688	1024.89453125	1349.3017578125	-22.29061889648438	811.9766845703125	1285.00244140625	38.20135879516602	854.4797973632812	1385.218872070312	-144.4973297119141	947.9418334960938	1395.85888671875	-189.0752105712891	932.76611328125	1277.512329101562	-266.5023498535156	950.32470703125	1074.426025390625	-281.7929077148438	879.9961547851562	1058.854125976562	-232.4231719970703	1030.697631835938	855.8244018554688	-222.1671752929688	1006.117065429688	843.5003662109375	-288.809814453125	969.6705932617188	971.3494873046875	-287.8335876464844	1012.958618164062	755.6986694335938	-286.0749206542969	1059.868896484375	758.0272216796875	-240.2696838378906	923.3056030273438	1406.27294921875	123.9201583862305	916.4539184570312	1348.95703125	191.6270751953125	916.4876098632812	1084.8408203125	247.8946380615234	882.5382080078125	1073.227783203125	158.7716979980469	1030.77197265625	868.129638671875	197.4950561523438	989.7924194335938	861.0519409179688	271.2850341796875	945.44921875	1018.539123535156	261.1364440917969	1051.910034179688	683.095947265625	199.7654113769531	1068.40869140625	754.8754272460938	214.2581176757812	1020.954711914062	750.7586059570312	265.6544189453125	881.2125244140625	1586.956176757812	37.13923645019531	1057.502319335938	1626.887451171875	-73.20987701416016	1052.825439453125	1622.958374023438	19.58429145812988	889.7413940429688	1582.974487304688	-108.7302780151367	903.298828125	943.05908203125	-194.9459838867188	922.88720703125	947.7123413085938	179.3749694824219	1043.700317382812	956.6143798828125	111.4749145507812	987.6919555664062	479.9765625	-176.3676300048828	872.0368041992188	41.02240753173828	-168.1338806152344	925.0172729492188	256.686767578125	-183.1282196044922	1077.71435546875	29.1608715057373	-101.0804824829102	1004.617431640625	22.69466018676758	-63.89512634277344	995.899169921875	32.99539947509766	-175.6492156982422	824.886474609375	36.26556015014648	-110.3702392578125	968.0050048828125	473.8698425292969	128.3416137695312	991.6166381835938	735.1785888671875	172.4980926513672	882.5525512695312	34.84441757202148	83.35300445556641	970.0338745117188	349.4718322753906	109.7460784912109	1079.658081054688	34.93647003173828	31.68484306335449	1022.795471191406	33.68246078491211	-7.795792102813721	986.5447998046875	24.84906768798828	104.5481796264648	830.2733764648438	35.42411804199219	31.29010009765625	1040.18017578125	668.9757080078125	-221.2714233398438	824.0623779296875	994.9446411132812	72.87263488769531	973.8775024414062	621.5503540039062	-193.8642883300781	1039.04736328125	954.6984252929688	-140.1837310791016	nan	nan	nan	
